# xmcd
#
# Track frame offsets: 
#        150
#        21119
#        52329
#        73333
#        105016
#        125215
#        149223
#        170324
#        193499
#        225596
#        252149
#        266356
#
# Disc length: 3845 seconds
#
# Revision: 0
# Processed by: cddbd v1.5.2PL0 Copyright (c) Steve Scherf et al.
# Submitted via: ExactAudioCopy v1.0b1
#
DISCID=b70f030c
DTITLE=Buddy Guy - DJ Play My Blues
DYEAR=1981
DGENRE=Blues
TTITLE0=Girl you're nice and clean
TTITLE1=Dedication to the late t-bone walker
TTITLE2=Good news
TTITLE3=Blues at my baby's house
TTITLE4=She suits me to A T
TTITLE5=DJ play my blues
TTITLE6=Just teasin'
TTITLE7=All your love
TTITLE8=The garbage man blues
TTITLE9=Mellow down
TTITLE10=Comin' on
TTITLE11=Girl you're nice and clean (alternative)
EXTD=
EXTT0=
EXTT1=
EXTT2=
EXTT3=
EXTT4=
EXTT5=
EXTT6=
EXTT7=
EXTT8=
EXTT9=
EXTT10=
EXTT11=
PLAYORDER=
